<svg xmlns="http://www.w3.org/2000/svg" width="160" height="192" viewBox="0 0 160 192" role="img" aria-label="Alquimista JOIN" shape-rendering="crispEdges">
  <title>Alquimista JOIN</title>
  <rect x="0" y="0" width="160" height="192" fill="none"/>
  
  <rect x="38" y="168" width="84" height="8" fill="#000000" opacity="0.28"/>
  <rect x="34" y="28" width="92" height="140" fill="#050a14"/>
  <rect x="42" y="20" width="76" height="20" fill="#1f2937"/>
  <rect x="44" y="18" width="72" height="10" fill="#c084fc"/><rect x="54" y="10" width="52" height="10" fill="#1f2937"/>
  <rect x="50" y="44" width="60" height="58" fill="#f0b98a"/>
  <rect x="46" y="38" width="68" height="20" fill="#1f2937"/>
  <rect x="58" y="62" width="8" height="8" fill="#111827"/>
  <rect x="92" y="62" width="8" height="8" fill="#111827"/>
  <rect x="76" y="74" width="8" height="6" fill="#b45309"/>
  <rect x="68" y="88" width="26" height="6" fill="#fff7ed"/>
  <rect x="42" y="100" width="76" height="58" fill="#16a34a"/>
  <rect x="50" y="108" width="60" height="8" fill="#c084fc"/>
  <rect x="58" y="118" width="44" height="8" fill="#ffffff" opacity="0.18"/>
  <rect x="30" y="108" width="18" height="44" fill="#16a34a"/>
  <rect x="112" y="108" width="18" height="44" fill="#16a34a"/>
  <rect x="34" y="150" width="18" height="12" fill="#f0b98a"/>
  <rect x="108" y="150" width="18" height="12" fill="#f0b98a"/>
  <rect x="54" y="158" width="22" height="14" fill="#111827"/>
  <rect x="84" y="158" width="22" height="14" fill="#111827"/>
  <rect x="118" y="104" width="24" height="30" fill="#9ec0ff"/><rect x="124" y="94" width="12" height="12" fill="#c084fc"/><rect x="122" y="118" width="16" height="8" fill="#72e6a8"/>
  <rect x="34" y="28" width="8" height="132" fill="#ffffff" opacity="0.08"/>
  <rect x="118" y="36" width="8" height="124" fill="#000000" opacity="0.18"/>
</svg>
