<svg xmlns="http://www.w3.org/2000/svg" width="160" height="192" viewBox="0 0 160 192" role="img" aria-label="Lorde Subquery" shape-rendering="crispEdges">
  <title>Lorde Subquery</title>
  <rect x="0" y="0" width="160" height="192" fill="none"/>
  
  <rect x="38" y="168" width="84" height="8" fill="#000000" opacity="0.28"/>
  <rect x="34" y="28" width="92" height="140" fill="#050a14"/>
  <rect x="42" y="20" width="76" height="20" fill="#0f172a"/>
  <rect x="50" y="10" width="10" height="18" fill="#22d3ee"/><rect x="75" y="4" width="10" height="24" fill="#22d3ee"/><rect x="100" y="10" width="10" height="18" fill="#22d3ee"/><rect x="46" y="28" width="68" height="10" fill="#22d3ee"/>
  <rect x="50" y="44" width="60" height="58" fill="#f0b98a"/>
  <rect x="46" y="38" width="68" height="20" fill="#0f172a"/>
  <rect x="58" y="62" width="8" height="8" fill="#111827"/>
  <rect x="92" y="62" width="8" height="8" fill="#111827"/>
  <rect x="76" y="74" width="8" height="6" fill="#b45309"/>
  <rect x="68" y="88" width="26" height="6" fill="#fff7ed"/>
  <rect x="42" y="100" width="76" height="58" fill="#be185d"/>
  <rect x="50" y="108" width="60" height="8" fill="#22d3ee"/>
  <rect x="58" y="118" width="44" height="8" fill="#ffffff" opacity="0.18"/>
  <rect x="30" y="108" width="18" height="44" fill="#be185d"/>
  <rect x="112" y="108" width="18" height="44" fill="#be185d"/>
  <rect x="34" y="150" width="18" height="12" fill="#f0b98a"/>
  <rect x="108" y="150" width="18" height="12" fill="#f0b98a"/>
  <rect x="54" y="158" width="22" height="14" fill="#111827"/>
  <rect x="84" y="158" width="22" height="14" fill="#111827"/>
  <rect x="116" y="90" width="28" height="44" fill="#22d3ee"/><rect x="122" y="98" width="16" height="28" fill="#be185d"/>
  <rect x="34" y="28" width="8" height="132" fill="#ffffff" opacity="0.08"/>
  <rect x="118" y="36" width="8" height="124" fill="#000000" opacity="0.18"/>
</svg>
