<svg xmlns="http://www.w3.org/2000/svg" width="128" height="128" viewBox="0 0 128 128" role="img" aria-label="Raposa Query" shape-rendering="crispEdges">
  <title>Raposa Query</title>
  <rect x="0" y="0" width="128" height="128" fill="none"/>
  
  <rect x="26" y="104" width="76" height="8" fill="#000000" opacity="0.26"/>
  
  <rect x="42" y="46" width="46" height="38" fill="#f97316"/>
  <rect x="32" y="30" width="18" height="24" fill="#f97316"/>
  <rect x="80" y="30" width="18" height="24" fill="#f97316"/>
  <rect x="38" y="36" width="8" height="12" fill="#fde68a"/>
  <rect x="84" y="36" width="8" height="12" fill="#fde68a"/>
  <rect x="52" y="62" width="7" height="7" fill="#7c2d12"/>
  <rect x="74" y="62" width="7" height="7" fill="#7c2d12"/>
  <rect x="56" y="76" width="20" height="10" fill="#fde68a"/>
  <rect x="84" y="76" width="28" height="16" fill="#f97316"/>
  <rect x="104" y="80" width="12" height="8" fill="#fde68a"/>
  <rect x="30" y="34" width="10" height="10" fill="#ffffff" opacity="0.16"/>
  <rect x="92" y="42" width="8" height="8" fill="#ffffff" opacity="0.12"/>
  <rect x="82" y="24" width="6" height="6" fill="#fde68a" opacity="0.75"/>
</svg>
